<svg xmlns="http://www.w3.org/2000/svg" viewBox="0 0 256 256" width="256" height="256">
  <defs>
    <linearGradient id="paint0_linear" x1="96" y1="179" x2="32" y2="179" gradientUnits="userSpaceOnUse">
      <stop stop-color="#37474F"/>
      <stop offset="1" stop-color="#37474F" stop-opacity="0"/>
    </linearGradient>
  </defs>

  <rect x="6" y="6" width="244" height="244" rx="20" fill="white"/>
  <path
    d="M190.414 184.406C180.102 184.406 171.711 181.031 165.242 174.281C158.773 167.484 155.539 158.414 155.539 147.07V144.68C155.539 137.133 156.969 130.406 159.828 124.5C162.734 118.547 166.766 113.906 171.922 110.578C177.125 107.203 182.75 105.516 188.797 105.516C198.688 105.516 206.375 108.773 211.859 115.289C217.344 121.805 220.086 131.133 220.086 143.273V145.688C220.086 147.344 218.743 148.688 217.086 148.688H168.547C168.734 156.188 170.914 162.258 175.086 166.898C179.305 171.492 184.648 173.789 191.117 173.789C195.711 173.789 199.602 172.852 202.789 170.977C205.146 169.59 207.285 167.87 209.207 165.817C210.342 164.604 212.221 164.353 213.532 165.374L216.927 168.018C218.157 168.975 218.459 170.726 217.513 171.964C211.179 180.259 202.146 184.406 190.414 184.406ZM188.797 116.203C183.547 116.203 179.141 118.125 175.578 121.969C172.016 125.766 169.812 131.109 168.969 138H207.078V137.016C206.703 130.406 204.922 125.297 201.734 121.688C198.547 118.031 194.234 116.203 188.797 116.203Z"
    fill="#37474F"
  />
  <path
    d="M25 174.5H153.4C154.4 174.5 155.334 174.998 155.956 175.781C156.812 176.859 158.209 178.465 160 180C161.134 180.972 162.163 181.786 163.036 182.443C163.846 183.053 163.404 184.5 162.39 184.5H25V174.5Z"
    fill="url(#paint0_linear)"
  />
</svg>
