<?xml version="1.0" standalone="no"?>
<!DOCTYPE svg PUBLIC "-//W3C//DTD SVG 20010904//EN"
 "http://www.w3.org/TR/2001/REC-SVG-20010904/DTD/svg10.dtd">
<svg version="1.0" xmlns="http://www.w3.org/2000/svg"
 width="700.000000pt" height="700.000000pt" viewBox="0 0 700.000000 700.000000"
 preserveAspectRatio="xMidYMid meet">
<metadata>
Created by potrace 1.11, written by Peter Selinger 2001-2013
</metadata>
<g transform="translate(0.000000,700.000000) scale(0.100000,-0.100000)"
fill="#000000" stroke="none">
<path d="M4960 4090 c-176 -46 -368 -173 -477 -315 -73 -94 -157 -268 -187
-386 -52 -201 -58 -474 -15 -683 93 -459 451 -746 929 -746 300 0 523 95 706
302 34 37 44 57 44 83 0 30 -8 41 -66 89 -98 81 -118 80 -217 -10 -77 -69
-152 -115 -237 -145 -56 -20 -85 -23 -205 -24 -122 0 -149 3 -208 23 -229 80
-387 304 -414 586 l-6 65 681 3 681 3 23 23 c22 22 23 29 22 170 -5 505 -213
844 -584 953 -111 32 -364 37 -470 9z m322 -281 c208 -44 352 -239 375 -506
l6 -73 -522 0 -522 0 6 38 c58 341 257 550 527 551 42 1 101 -4 130 -10z"/>
<path d="M1828 2223 l-68 -4 0 -129 0 -130 1353 2 c1249 3 1352 4 1352 20 0 9
-55 68 -122 132 l-123 116 -1162 -2 c-640 -1 -1193 -3 -1230 -5z"/>
</g>
</svg>
